<svg width="1435" height="150" viewBox="0 0 1435 150" fill="none" xmlns="http://www.w3.org/2000/svg">
<g clip-path="url(#clip0_136_2)">
<path d="M1439.23 0.420044H-5V150.86H1439.23V0.420044Z" fill="black"/>
<path d="M-5 136.87L9.41 139.71L2.96 130.8L13.48 139.71L7.79 132.22L14.71 137.53L20.78 103.03C20.78 103.03 8.7 92.51 4.57 89.67C4.57 89.67 1.3 87.11 4.14 85.55C6.98 83.9901 21.77 98.63 21.77 98.63C21.77 98.63 21.2 79.72 20.63 77.87L6.21 64.5C6.21 64.5 5.19 63.16 6.27 62.39C6.9 61.95 7.77 62.05 8.35 62.55L22.55 74.66C22.55 74.66 26.55 63.76 26.74 62.11C26.93 60.47 17.07 49.19 15.37 46.72C13.67 44.25 15.46 43.02 16.89 43.59L28.07 57.14L30.53 43.87C30.53 43.87 31.1 41.78 32.8 41.78C34.5 41.78 35.26 42.63 34.6 46.99C33.94 51.35 31.87 70.8 31.87 70.8C31.87 70.8 39.64 62.36 42.11 62.55C44.57 62.74 42.02 65.49 40.59 66.53C39.17 67.57 31.21 76.01 31.21 76.01L28.75 96.96L43.14 80.85C43.14 80.85 44.48 78.95 46.19 78.95C47.9 78.95 46.85 80.5601 46.19 81.51C45.53 82.46 28.37 103.97 28.37 103.97V141.69L39.93 131.26L30.55 143.11L39.93 139.03L35 144.73C35 144.73 58.51 146.06 63.81 145.68L58.31 138.76L67.41 145.75H70.25L60.96 134.88L70.82 142.46C70.82 142.46 70.82 120.57 67.03 117.34C67.03 117.34 55.09 116.96 54.9 116.68C54.71 116.4 52.44 114.22 57.08 113.84C61.72 113.46 66.56 113.75 66.56 113.75L64 101.8C64 101.8 58.5 97.91 49.88 96.3C49.88 96.3 46.47 96.56 46.75 93.77C47.03 90.99 54.52 94.21 54.52 94.21L62.58 97.53C62.58 97.53 59.07 81.51 60.12 80.09C61.17 78.67 63.25 79.24 63.63 81.04C64.01 82.84 66.76 93.36 66.76 93.36C66.76 93.36 70.36 78.01 72.35 73.36C74.34 68.72 76.52 70.61 75.67 73.93C74.82 77.25 69.22 91.09 69.41 98.57L73.77 109.09C73.77 109.09 74.62 90.99 77.28 88.52C79.93 86.06 79.84 89.66 79.27 91.84C78.7 94.02 75.57 109.09 75.95 119.52C76.33 129.95 79.59 137.34 79.59 137.34L82.87 142.46L88.56 133.74L85.24 142.27L91.87 140.09L86.94 144.07L105.71 142.93L107.13 140.94L100.68 134.4L107.13 137.72L112.63 126.25L109.41 139.33L111.4 139.61C111.4 139.61 115.48 137.81 116.23 135.44C116.99 133.07 126.37 99.04 126.37 99.04C126.37 99.04 116.89 86.34 116.51 84.63C116.13 82.92 116.13 81.5 117.65 81.79C119.17 82.07 127.79 94.87 127.79 94.87C127.79 94.87 133.1 78.76 133.48 75.35C133.48 75.35 117.18 62.84 116.61 61.32C116.04 59.8 116.52 57.24 121.92 61.04C127.32 64.83 135 72.32 135 72.32C135 72.32 138.41 54.98 139.93 54.69C141.45 54.41 142.49 53.93 143.25 55.92C144.01 57.91 139.84 84.35 139.84 84.35L151.78 78.09C151.78 78.09 153.3 77.14 154.34 78.09C155.38 79.04 153.77 80.18 152.92 80.93C152.07 81.68 137.76 89.65 137.76 89.65C137.76 89.65 134.73 96.47 132.45 104.06C130.18 111.64 125.25 136.29 125.53 139.13L138.23 129.65L126.76 141.02L127.14 142.63L136.14 134L130.55 142.81C130.55 142.81 155.29 145.18 161.07 144.23L153.39 134.28L163.82 144.04V136.27L167.14 144.8C167.14 144.8 169.13 129.82 167.61 124.52L148.46 108.88C148.46 108.88 146.66 105.75 149.88 106.51L166.85 119.59L165.14 98.64L152.53 90.77C152.53 90.77 149.78 88.87 153.86 88.5L165.61 95.42C165.61 95.42 164.76 82.53 165.89 81.39C167.03 80.25 169.87 79.02 170.16 82.43V86.7C170.16 86.7 179.35 73.53 180.59 70.59C180.59 70.59 184.86 68.03 182.01 74.29C179.17 80.55 170.64 91.73 170.64 91.73L171.68 105.38C171.68 105.38 178.5 97.04 179.36 96.28C180.21 95.52 183.15 95.05 181.35 98.27C179.55 101.49 172.72 109.83 172.72 109.83C172.72 109.83 175.47 137.32 177.93 143.1L180.02 135.9L180.78 143.1L185.14 135.23L183.05 144.42C183.05 144.42 222.95 144.23 229.78 144.37C236.6 144.51 261.2 144.51 272.29 144.09C283.38 143.67 333.71 142.67 346.22 142.53C358.73 142.39 414.6 143.53 421 143.53C427.4 143.53 476.73 144.67 483.56 144.67C490.38 144.67 516.54 145.73 516.54 145.73C516.54 145.73 527.63 147.94 534.31 146.51C534.31 146.51 544.26 144.05 556.63 146.99C556.63 146.99 561.04 148.5 571.13 145.38C581.22 142.25 604.26 144.53 608.24 143.53C612.22 142.53 638.66 133.44 647.05 129.17C647.05 129.17 651.6 127.18 658.71 127.75L655.16 120.93L660.14 126.19L661.56 117.09L662.84 125.34L668.95 116.38L665.11 125.19C665.11 125.19 674.07 123.48 679.9 123.63C685.73 123.77 689.8 121.47 692.22 118.49C692.22 118.49 695.68 113.96 700.09 115.24C700.09 115.24 702.29 110.16 707.06 111.47C707.06 111.47 706.85 106.28 713.49 104.36C713.49 104.36 716.01 101.11 713.08 98.41C713.08 98.41 707.68 101.96 702.65 99.12C697.63 96.2801 697.82 92.86 697.82 92.86C697.82 92.86 693.7 93.38 691.14 92.1C691.14 92.1 689.48 96.37 684.13 95.46C684.13 95.46 682.38 99.11 677.4 97.83C677.4 97.83 675.17 102.52 668.54 100.34C668.54 100.34 660.2 101.1 661.48 93.52C661.48 93.52 655.03 91.72 656.79 85.8C656.79 85.8 643.43 85.56 650.3 75.09C650.3 75.09 646.32 69.36 651.25 65.9C651.25 65.9 649.07 61.63 652.34 59.08C652.34 59.08 646.44 55.24 648.71 50.98C648.71 50.98 643.02 45.01 650.49 41.31C650.49 41.31 648.43 35.98 654.54 34.41C654.54 34.41 656.1 29.22 659.73 30.22C659.73 30.22 660.09 22.05 667.69 27.31C667.69 27.31 670.11 24.04 673.73 24.4C673.73 24.4 674.8 19 680.98 19.42C680.98 19.42 681.19 10.75 689.72 11.25C689.72 11.25 690.93 7.91005 692.85 7.20005C692.85 7.20005 694.91 -0.829954 701.02 3.08005C701.02 3.08005 701.59 3.44005 702.16 4.29005C702.16 4.29005 706.28 3.01005 707.56 4.15005C707.56 4.15005 710.97 1.09005 715.1 2.73005C715.1 2.73005 722.07 -2.45995 727.04 3.65005C727.04 3.65005 733.65 -1.32995 738.34 4.01005C738.34 4.01005 747.94 -1.45995 753.69 6.28005C753.69 6.28005 761.3 0.0200462 766.63 6.78005C766.63 6.78005 773.95 -0.759953 781.7 7.35005C781.7 7.35005 789.87 4.65005 791.65 12.4C791.65 12.4 798.62 10.41 800.25 18.3C800.25 18.3 803.88 17.45 804.09 22C804.09 22 811.34 21.22 812.19 29.61C812.19 29.61 824.99 26.77 821.86 38.35C821.86 38.35 830.6 39.06 829.4 49.01C829.4 49.01 834.52 49.37 833.03 55.83C833.03 55.83 839.21 56.9 834.45 63.72C834.45 63.72 838.5 69.62 828.69 74.03C828.69 74.03 833.1 82.28 826.06 85.83C826.06 85.83 823.86 96.9901 811.2 90.66C811.2 90.66 802.67 103.6 789.38 89.24C789.38 89.24 785.75 96.56 776.51 88.24C776.51 88.24 773.74 93.22 765.71 92.22C765.71 92.22 751.21 97.41 762.01 106.29C762.01 106.29 765.21 109.92 768.41 110.48C771.61 111.05 777.3 109.34 779 115.81C779 115.81 784.4 116.45 789.66 122.85C789.66 122.85 789.23 117.16 788.45 113.75L792 119.93L796.05 112.82L793.63 123.41L803.08 115.8L795.62 125.75C795.62 125.75 816.09 128.45 828.46 134.42C840.83 140.39 857.89 144.8 857.89 144.8V136.55L860.16 143.37L863.57 138.82L862.43 145.22L871.81 139.53L865.41 146.21C865.41 146.21 887.73 146.47 899.67 147.34C911.61 148.2 911.61 143.08 929.81 145.93C944.31 145.93 971.61 142.8 984.69 144.51C997.77 146.22 1017.96 145.93 1023.64 145.65C1029.33 145.37 1066.58 143.38 1097.28 146.22C1127.14 144.23 1126.57 145.37 1159.27 145.94C1191.97 146.51 1199.65 144.8 1213.01 146.22C1226.37 147.64 1244.86 147.45 1244.86 147.45L1243.3 139.68L1248.56 147.46C1248.56 147.46 1249.98 136.41 1244.72 131.72L1232.49 126.03L1244.86 127.88L1244.15 114.09L1230.5 113.52L1242.58 110.96C1242.58 110.96 1242.58 105.7 1245.28 105.7C1247.98 105.7 1249.55 119.92 1249.55 119.92C1249.55 119.92 1253.53 112.95 1255.24 112.67C1256.95 112.39 1258.94 112.24 1255.95 116.51C1252.96 120.78 1251.4 124.19 1251.4 124.19C1251.4 124.19 1255.67 142.76 1255.95 146.8L1261.64 141.4L1258.94 147.47L1260.79 146.8L1266.76 143.53L1263.92 147.47H1284.96L1280.41 140.41L1287.38 147.47H1289.09C1289.09 147.47 1287.38 138.7 1286.39 132.3C1282.12 122.92 1273.17 101.45 1271.46 98.89C1271.46 98.89 1253.26 97.89 1252.69 97.33C1252.12 96.76 1250.13 94.34 1254.54 94.2C1258.95 94.06 1268.47 96.33 1269.61 95.34C1270.75 94.35 1258.09 72.45 1258.24 69.89C1258.38 67.33 1260.23 65.7701 1262.93 69.61C1265.63 73.45 1268.76 82.55 1269.75 83.26C1270.75 83.97 1272.45 83.83 1272.45 83.83C1272.45 83.83 1274.16 68.76 1274.58 68.05C1275 67.34 1277.14 66.34 1277.14 69.61C1277.14 72.88 1275.15 87.81 1275.15 87.81C1275.15 87.81 1281.24 99.44 1282.1 106.12C1282.1 106.12 1288.8 91.65 1292.64 89.65C1292.64 89.65 1296.34 88.8 1292.64 93.35C1288.94 97.9 1284.54 107.71 1284.96 109.56C1285.38 111.41 1288.37 120.93 1295.48 129.46C1302.59 137.99 1307 143.53 1307 143.53L1310.98 139.69L1310.13 145.38L1320.51 139.84L1314.54 145.53C1314.54 145.53 1347.1 144.11 1353.49 144.96L1348.8 137.99L1356.19 144.96C1356.19 144.96 1359.46 132.88 1361.59 124.63L1366.28 88.09C1366.28 88.09 1347.37 78.71 1347.51 76.57C1347.65 74.44 1349.93 74.25 1352.2 75.62C1354.47 76.9901 1367.84 85.24 1367.84 85.24C1367.84 85.24 1369.69 67.9 1370.26 63.35C1370.26 63.35 1357.04 62.07 1354.05 57.52C1354.05 57.52 1353.91 55.25 1358.03 56.95C1362.15 58.65 1369.12 60.22 1370.26 59.65C1371.4 59.08 1371.26 47.85 1373.39 45.43C1375.52 43.01 1378.08 44.58 1375.81 54.67C1373.54 64.76 1373.82 70.59 1373.82 70.59C1373.82 70.59 1382.49 58.65 1384.77 57.51C1387.04 56.37 1388.75 57.23 1384.77 62.34C1380.79 67.46 1375.81 72.01 1373.82 77.55C1371.83 83.09 1370.55 101.15 1370.55 101.15C1370.55 101.15 1386.76 79.49 1390.88 75.61C1390.88 75.61 1398.42 71.01 1390.31 81.68C1382.21 92.34 1379.76 92.36 1370.83 107.27C1370.83 107.27 1367.56 138.69 1367.56 143.38L1372.11 141.25L1369.12 145.66L1379.21 141.82L1374.8 146.09L1388.59 146.23L1387.74 141.54L1391.15 145.95C1391.15 145.95 1403.38 136.28 1407.64 124.06C1407.64 124.06 1395.41 122.92 1394.7 122.35C1393.99 121.78 1394.27 119.79 1395.98 119.65C1397.69 119.51 1408.78 120.93 1408.78 120.93C1408.78 120.93 1415.75 111.55 1415.6 108.13C1415.6 108.13 1404.94 92.35 1405.08 90.07C1405.22 87.8 1407.5 87.51 1409.35 91.21C1411.2 94.91 1418.02 105.43 1418.02 105.43C1418.02 105.43 1424.56 90.79 1426.41 89.51C1428.26 88.23 1431.81 88.09 1428.26 94.91C1424.71 101.73 1417.45 116.24 1417.45 116.24L1430.81 116.1C1430.81 116.1 1436.21 117.1 1430.81 119.51H1415.88C1415.88 119.51 1409.34 131.17 1405.5 138.7L1404.79 146.66L1413.75 143.39L1407.49 147.47L1439.05 145.52V150.84H-5V136.87Z" fill="#FF6500"/>
<path d="M533.241 130.82C533.241 130.82 519.241 142.12 510.851 141.34C510.851 141.34 510.491 130.89 522.371 125.99C534.241 121.09 535.951 123.08 544.261 124.14C552.581 125.21 556.561 125.28 557.621 123.86C557.621 123.86 557.901 121.02 556.841 117.18C555.771 113.34 556.561 111.99 556.561 111.99C556.561 111.99 560.161 114.83 561.371 117.6C561.371 117.6 562.241 114.47 561.811 111.99C561.811 111.99 564.021 113.2 565.661 120.52C565.661 120.52 566.161 123.72 567.861 125C569.571 126.28 569.071 127.2 572.621 129.12C576.171 131.04 573.901 132.89 570.561 132.53C567.221 132.17 564.731 131.25 561.671 130.82C561.671 130.82 560.821 132.31 561.031 132.95C561.241 133.59 561.461 136.01 565.791 137C570.131 138 571.621 138.07 571.481 139.13C571.341 140.19 568.281 140.76 565.651 139.7C563.021 138.63 559.541 136.07 558.611 134.37C558.611 134.37 557.261 138.14 558.891 140.63C560.531 143.12 562.731 143.76 562.731 143.76C562.731 143.76 564.721 144.4 562.801 145.39C561.941 145.84 560.511 145.64 559.081 144.89C556.391 143.48 554.781 140.61 554.741 137.57L554.701 134.73C554.701 134.73 540.061 134.09 538.631 134.52C538.631 134.52 536.851 139.92 530.881 141.06C530.881 141.06 529.881 141.06 529.671 143.55L531.521 143.91C531.521 143.91 532.161 144.91 531.521 145.05C530.881 145.19 528.251 144.55 528.251 144.55L528.821 138.86L527.181 139.57C527.181 139.57 523.771 143.12 522.351 143.12C520.931 143.12 523.911 139.57 524.911 139.28C525.911 139 531.351 134.87 531.881 133.17C532.411 131.47 533.241 130.82 533.241 130.82Z" fill="white"/>
</g>
<defs>
<clipPath id="clip0_136_2">
<rect width="1440" height="150" fill="white" transform="translate(-5)"/>
</clipPath>
</defs>
</svg>
