<svg width="1445" height="152" viewBox="0 0 1445 152" fill="none" xmlns="http://www.w3.org/2000/svg">
<path d="M0.000488281 0H1444.23V150.44H0.000488281V0Z" fill="#FFB800"/>
<path d="M1444.23 137.45L1429.82 140.29L1436.27 131.38L1425.75 140.29L1431.44 132.8L1424.52 138.11L1418.45 103.61C1418.45 103.61 1430.53 93.0899 1434.66 90.2499C1434.66 90.2499 1437.93 87.6899 1435.09 86.1299C1432.25 84.5699 1417.46 99.2099 1417.46 99.2099C1417.46 99.2099 1418.03 80.2999 1418.6 78.4499L1433.02 65.0799C1433.02 65.0799 1434.04 63.7399 1432.96 62.9699C1432.33 62.5299 1431.46 62.6299 1430.88 63.1299L1416.68 75.2399C1416.68 75.2399 1412.68 64.3399 1412.49 62.6899C1412.3 61.0499 1422.16 49.7699 1423.86 47.2999C1425.56 44.8299 1423.77 43.5999 1422.34 44.1699L1411.16 57.7199L1408.7 44.4499C1408.7 44.4499 1408.13 42.3599 1406.43 42.3599C1404.73 42.3599 1403.97 43.2099 1404.63 47.5699C1405.29 51.9299 1407.36 71.3799 1407.36 71.3799C1407.36 71.3799 1399.59 62.9399 1397.12 63.1299C1394.66 63.3199 1397.21 66.0699 1398.64 67.1099C1400.06 68.1499 1408.02 76.5899 1408.02 76.5899L1410.48 97.5399L1396.09 81.4299C1396.09 81.4299 1394.75 79.5299 1393.04 79.5299C1391.33 79.5299 1392.38 81.1399 1393.04 82.0899C1393.7 83.0399 1410.86 104.55 1410.86 104.55V142.27L1399.3 131.84L1408.68 143.69L1399.3 139.61L1404.23 145.31C1404.23 145.31 1380.72 146.64 1375.42 146.26L1380.92 139.34L1371.82 146.33H1368.98L1378.27 135.46L1368.41 143.04C1368.41 143.04 1368.41 121.15 1372.2 117.92C1372.2 117.92 1384.14 117.54 1384.33 117.26C1384.52 116.98 1386.79 114.8 1382.15 114.42C1377.51 114.04 1372.67 114.33 1372.67 114.33L1375.23 102.38C1375.23 102.38 1380.73 98.4899 1389.35 96.8799C1389.35 96.8799 1392.76 97.1399 1392.48 94.3499C1392.2 91.5699 1384.71 94.7899 1384.71 94.7899L1376.65 98.1099C1376.65 98.1099 1380.16 82.0899 1379.11 80.6699C1378.06 79.2499 1375.98 79.8199 1375.6 81.6199C1375.22 83.4199 1372.47 93.9399 1372.47 93.9399C1372.47 93.9399 1368.87 78.5899 1366.88 73.9399C1364.89 69.2999 1362.71 71.1899 1363.56 74.5099C1364.41 77.8299 1370.01 91.6699 1369.82 99.1499L1365.46 109.67C1365.46 109.67 1364.61 91.5699 1361.95 89.0999C1359.3 86.6399 1359.39 90.2399 1359.96 92.4199C1360.53 94.5999 1363.66 109.67 1363.28 120.1C1362.9 130.53 1359.64 137.92 1359.64 137.92L1356.36 143.04L1350.67 134.32L1353.99 142.85L1347.36 140.67L1352.29 144.65L1333.52 143.51L1332.1 141.52L1338.55 134.98L1332.1 138.3L1326.6 126.83L1329.82 139.91L1327.83 140.19C1327.83 140.19 1323.75 138.39 1323 136.02C1322.24 133.65 1312.86 99.6199 1312.86 99.6199C1312.86 99.6199 1322.34 86.9199 1322.72 85.2099C1323.1 83.4999 1323.1 82.0799 1321.58 82.3699C1320.06 82.6499 1311.44 95.4499 1311.44 95.4499C1311.44 95.4499 1306.13 79.3399 1305.75 75.9299C1305.75 75.9299 1322.05 63.4199 1322.62 61.8999C1323.19 60.3799 1322.71 57.8199 1317.31 61.6199C1311.91 65.4099 1304.23 72.8999 1304.23 72.8999C1304.23 72.8999 1300.82 55.5599 1299.3 55.2699C1297.78 54.9899 1296.74 54.5099 1295.98 56.4999C1295.22 58.4899 1299.39 84.9299 1299.39 84.9299L1287.45 78.6699C1287.45 78.6699 1285.93 77.7199 1284.89 78.6699C1283.85 79.6199 1285.46 80.7599 1286.31 81.5099C1287.16 82.2599 1301.47 90.2299 1301.47 90.2299C1301.47 90.2299 1304.5 97.0499 1306.78 104.64C1309.05 112.22 1313.98 136.87 1313.7 139.71L1301 130.23L1312.47 141.6L1312.09 143.21L1303.09 134.58L1308.68 143.39C1308.68 143.39 1283.94 145.76 1278.16 144.81L1285.84 134.86L1275.41 144.62V136.85L1272.09 145.38C1272.09 145.38 1270.1 130.4 1271.62 125.1L1290.77 109.46C1290.77 109.46 1292.57 106.33 1289.35 107.09L1272.38 120.17L1274.09 99.2199L1286.7 91.3499C1286.7 91.3499 1289.45 89.4499 1285.37 89.0799L1273.62 95.9999C1273.62 95.9999 1274.47 83.1099 1273.34 81.9699C1272.2 80.8299 1269.36 79.5999 1269.07 83.0099V87.2799C1269.07 87.2799 1259.88 74.1099 1258.64 71.1699C1258.64 71.1699 1254.37 68.6099 1257.22 74.8699C1260.06 81.1299 1268.59 92.3099 1268.59 92.3099L1267.55 105.96C1267.55 105.96 1260.73 97.6199 1259.87 96.8599C1259.02 96.0999 1256.08 95.6299 1257.88 98.8499C1259.68 102.07 1266.51 110.41 1266.51 110.41C1266.51 110.41 1263.76 137.9 1261.3 143.68L1259.21 136.48L1258.45 143.68L1254.09 135.81L1256.18 145C1256.18 145 1216.28 144.81 1209.45 144.95C1202.63 145.09 1178.03 145.09 1166.94 144.67C1155.85 144.25 1105.52 143.25 1093.01 143.11C1080.5 142.97 1024.63 144.11 1018.23 144.11C1011.83 144.11 962.5 145.25 955.67 145.25C948.85 145.25 922.69 146.31 922.69 146.31C922.69 146.31 911.6 148.52 904.92 147.09C904.92 147.09 894.97 144.63 882.6 147.57C882.6 147.57 878.19 149.08 868.1 145.96C858.01 142.83 834.97 145.11 830.99 144.11C827.01 143.11 800.57 134.02 792.18 129.75C792.18 129.75 787.63 127.76 780.52 128.33L784.07 121.51L779.09 126.77L777.67 117.67L776.39 125.92L770.28 116.96L774.12 125.77C774.12 125.77 765.16 124.06 759.33 124.21C753.5 124.35 749.43 122.05 747.01 119.07C747.01 119.07 743.55 114.54 739.14 115.82C739.14 115.82 736.94 110.74 732.17 112.05C732.17 112.05 732.38 106.86 725.74 104.94C725.74 104.94 723.22 101.69 726.15 98.9899C726.15 98.9899 731.55 102.54 736.58 99.6999C741.6 96.8599 741.41 93.4399 741.41 93.4399C741.41 93.4399 745.53 93.9599 748.09 92.6799C748.09 92.6799 749.75 96.9499 755.1 96.0399C755.1 96.0399 756.85 99.6899 761.83 98.4099C761.83 98.4099 764.06 103.1 770.69 100.92C770.69 100.92 779.03 101.68 777.75 94.0999C777.75 94.0999 784.2 92.2999 782.44 86.3799C782.44 86.3799 795.8 86.1399 788.93 75.6699C788.93 75.6699 792.91 69.9399 787.98 66.4799C787.98 66.4799 790.16 62.2099 786.89 59.6599C786.89 59.6599 792.79 55.8199 790.52 51.5599C790.52 51.5599 796.21 45.5899 788.74 41.8899C788.74 41.8899 790.8 36.5599 784.69 34.9899C784.69 34.9899 783.13 29.7999 779.5 30.7999C779.5 30.7999 779.14 22.6299 771.54 27.8899C771.54 27.8899 769.12 24.6199 765.5 24.9799C765.5 24.9799 764.43 19.5799 758.25 19.9999C758.25 19.9999 758.04 11.3299 749.51 11.8299C749.51 11.8299 748.3 8.48988 746.38 7.77988C746.38 7.77988 744.32 -0.25012 738.21 3.65988C738.21 3.65988 737.64 4.01988 737.07 4.86988C737.07 4.86988 732.95 3.58988 731.67 4.72988C731.67 4.72988 728.26 1.66988 724.13 3.30988C724.13 3.30988 717.16 -1.88012 712.19 4.22988C712.19 4.22988 705.58 -0.75012 700.89 4.58988C700.89 4.58988 691.29 -0.880119 685.54 6.85988C685.54 6.85988 677.93 0.59988 672.6 7.35988C672.6 7.35988 665.28 -0.18012 657.53 7.92988C657.53 7.92988 649.36 5.22988 647.58 12.9799C647.58 12.9799 640.61 10.9899 638.98 18.8799C638.98 18.8799 635.35 18.0299 635.14 22.5799C635.14 22.5799 627.89 21.7999 627.04 30.1899C627.04 30.1899 614.24 27.3499 617.37 38.9299C617.37 38.9299 608.63 39.6399 609.83 49.5899C609.83 49.5899 604.71 49.9499 606.2 56.4099C606.2 56.4099 600.02 57.4799 604.78 64.2999C604.78 64.2999 600.73 70.1999 610.54 74.6099C610.54 74.6099 606.13 82.8599 613.17 86.4099C613.17 86.4099 615.37 97.5699 628.03 91.2399C628.03 91.2399 636.56 104.18 649.85 89.8199C649.85 89.8199 653.48 97.1399 662.72 88.8199C662.72 88.8199 665.49 93.7999 673.52 92.7999C673.52 92.7999 688.02 97.9899 677.22 106.87C677.22 106.87 674.02 110.5 670.82 111.06C667.62 111.63 661.93 109.92 660.23 116.39C660.23 116.39 654.83 117.03 649.57 123.43C649.57 123.43 650 117.74 650.78 114.33L647.23 120.51L643.18 113.4L645.6 123.99L636.15 116.38L643.61 126.33C643.61 126.33 623.14 129.03 610.77 135C598.4 140.97 581.34 145.38 581.34 145.38V137.13L579.07 143.95L575.66 139.4L576.8 145.8L567.42 140.11L573.82 146.79C573.82 146.79 551.5 147.05 539.56 147.92C527.62 148.78 527.62 143.66 509.42 146.51C494.92 146.51 467.62 143.38 454.54 145.09C441.46 146.8 421.27 146.51 415.59 146.23C409.9 145.95 372.65 143.96 341.95 146.8C312.09 144.81 312.66 145.95 279.96 146.52C247.26 147.09 239.58 145.38 226.22 146.8C212.86 148.22 194.37 148.03 194.37 148.03L195.93 140.26L190.67 148.04C190.67 148.04 189.25 136.99 194.51 132.3L206.74 126.61L194.37 128.46L195.08 114.67L208.73 114.1L196.651 111.54C196.651 111.54 196.65 106.28 193.95 106.28C191.25 106.28 189.68 120.5 189.68 120.5C189.68 120.5 185.7 113.53 183.99 113.25C182.28 112.97 180.291 112.82 183.281 117.09C186.271 121.36 187.83 124.77 187.83 124.77C187.83 124.77 183.561 143.34 183.281 147.38L177.59 141.98L180.291 148.05L178.44 147.38L172.47 144.11L175.31 148.05H154.271L158.82 140.99L151.85 148.05H150.141C150.141 148.05 151.85 139.28 152.84 132.88C157.11 123.5 166.061 102.03 167.771 99.4699C167.771 99.4699 185.971 98.4699 186.541 97.9099C187.111 97.3399 189.1 94.9199 184.69 94.7799C180.28 94.6399 170.76 96.9099 169.62 95.9199C168.48 94.9299 181.14 73.0299 180.99 70.4699C180.85 67.9099 179 66.3499 176.3 70.1899C173.6 74.0299 170.47 83.1299 169.48 83.8399C168.48 84.5499 166.781 84.4099 166.781 84.4099C166.781 84.4099 165.071 69.3399 164.651 68.6299C164.231 67.9199 162.09 66.9199 162.09 70.1899C162.09 73.4599 164.08 88.3899 164.08 88.3899C164.08 88.3899 157.99 100.02 157.13 106.7C157.13 106.7 150.43 92.2299 146.59 90.2299C146.59 90.2299 142.89 89.3799 146.59 93.9299C150.29 98.4799 154.691 108.29 154.271 110.14C153.851 111.99 150.86 121.51 143.75 130.04C136.64 138.57 132.23 144.11 132.23 144.11L128.25 140.27L129.1 145.96L118.72 140.42L124.69 146.11C124.69 146.11 92.1305 144.69 85.7405 145.54L90.4304 138.57L83.0405 145.54C83.0405 145.54 79.7705 133.46 77.6405 125.21L72.9504 88.6699C72.9504 88.6699 91.8605 79.2899 91.7205 77.1499C91.5805 75.0199 89.3005 74.8299 87.0305 76.1999C84.7605 77.5699 71.3905 85.8199 71.3905 85.8199C71.3905 85.8199 69.5405 68.4799 68.9705 63.9299C68.9705 63.9299 82.1904 62.6499 85.1804 58.0999C85.1804 58.0999 85.3204 55.8299 81.2004 57.5299C77.0804 59.2299 70.1105 60.7999 68.9705 60.2299C67.8305 59.6599 67.9705 48.4299 65.8405 46.0099C63.7105 43.5899 61.1504 45.1599 63.4204 55.2499C65.6904 65.3399 65.4105 71.1699 65.4105 71.1699C65.4105 71.1699 56.7404 59.2299 54.4604 58.0899C52.1904 56.9499 50.4804 57.8099 54.4604 62.9199C58.4404 68.0399 63.4205 72.5899 65.4105 78.1299C67.4005 83.6699 68.6804 101.73 68.6804 101.73C68.6804 101.73 52.4705 80.0699 48.3505 76.1899C48.3505 76.1899 40.8104 71.5899 48.9204 82.2599C57.0204 92.9199 59.4705 92.9399 68.4005 107.85C68.4005 107.85 71.6704 139.27 71.6704 143.96L67.1205 141.83L70.1105 146.24L60.0205 142.4L64.4304 146.67L50.6405 146.81L51.4905 142.12L48.0804 146.53C48.0804 146.53 35.8505 136.86 31.5905 124.64C31.5905 124.64 43.8205 123.5 44.5305 122.93C45.2405 122.36 44.9605 120.37 43.2505 120.23C41.5405 120.09 30.4504 121.51 30.4504 121.51C30.4504 121.51 23.4805 112.13 23.6305 108.71C23.6305 108.71 34.2905 92.9299 34.1505 90.6499C34.0105 88.3799 31.7305 88.0899 29.8805 91.7899C28.0305 95.4899 21.2104 106.01 21.2104 106.01C21.2104 106.01 14.6704 91.3699 12.8204 90.0899C10.9704 88.8099 7.42046 88.6699 10.9705 95.4899C14.5205 102.31 21.7805 116.82 21.7805 116.82L8.42041 116.68C8.42041 116.68 3.02041 117.68 8.42041 120.09H23.3505C23.3505 120.09 29.8905 131.75 33.7305 139.28L34.4404 147.24L25.4805 143.97L31.7405 148.05L0.18042 146.1V151.42H1444.23V137.45Z" fill="white"/>
<path d="M905.99 130.4C905.99 130.4 919.99 141.7 928.38 140.92C928.38 140.92 928.74 130.47 916.86 125.57C904.99 120.67 903.28 122.66 894.97 123.72C886.65 124.79 882.67 124.86 881.61 123.44C881.61 123.44 881.33 120.6 882.39 116.76C883.46 112.92 882.67 111.57 882.67 111.57C882.67 111.57 879.07 114.41 877.86 117.18C877.86 117.18 876.99 114.05 877.42 111.57C877.42 111.57 875.21 112.78 873.57 120.1C873.57 120.1 873.07 123.3 871.37 124.58C869.66 125.86 870.16 126.78 866.61 128.7C863.06 130.62 865.33 132.47 868.67 132.11C872.01 131.75 874.5 130.83 877.56 130.4C877.56 130.4 878.41 131.89 878.2 132.53C877.99 133.17 877.77 135.59 873.44 136.58C869.1 137.58 867.61 137.65 867.75 138.71C867.89 139.77 870.95 140.34 873.58 139.28C876.21 138.21 879.69 135.65 880.62 133.95C880.62 133.95 881.97 137.72 880.34 140.21C878.7 142.7 876.5 143.34 876.5 143.34C876.5 143.34 874.51 143.98 876.43 144.97C877.29 145.42 878.72 145.22 880.15 144.47C882.84 143.06 884.45 140.19 884.49 137.15L884.53 134.31C884.53 134.31 899.17 133.67 900.6 134.1C900.6 134.1 902.38 139.5 908.35 140.64C908.35 140.64 909.35 140.64 909.56 143.13L907.71 143.49C907.71 143.49 907.07 144.49 907.71 144.63C908.35 144.77 910.98 144.13 910.98 144.13L910.41 138.44L912.05 139.15C912.05 139.15 915.46 142.7 916.88 142.7C918.3 142.7 915.32 139.15 914.32 138.86C913.32 138.58 907.88 134.45 907.35 132.75C906.82 131.05 905.99 130.4 905.99 130.4Z" fill="white"/>
</svg>
