<svg width="1440" height="151" viewBox="0 0 1440 151" fill="none" xmlns="http://www.w3.org/2000/svg">
<path d="M-1.99951 0H1442.23V150.44H-1.99951V0Z" fill="#FFB800"/>
<path d="M1442.23 136.45L1427.82 139.29L1434.27 130.38L1423.75 139.29L1429.44 131.8L1422.52 137.11L1416.45 102.61C1416.45 102.61 1428.53 92.0899 1432.66 89.2499C1432.66 89.2499 1435.93 86.6899 1433.09 85.1299C1430.25 83.5699 1415.46 98.2099 1415.46 98.2099C1415.46 98.2099 1416.03 79.2999 1416.6 77.4499L1431.02 64.0799C1431.02 64.0799 1432.04 62.7399 1430.96 61.9699C1430.33 61.5299 1429.46 61.6299 1428.88 62.1299L1414.68 74.2399C1414.68 74.2399 1410.68 63.3399 1410.49 61.6899C1410.3 60.0499 1420.16 48.7699 1421.86 46.2999C1423.56 43.8299 1421.77 42.5999 1420.34 43.1699L1409.16 56.7199L1406.7 43.4499C1406.7 43.4499 1406.13 41.3599 1404.43 41.3599C1402.73 41.3599 1401.97 42.2099 1402.63 46.5699C1403.29 50.9299 1405.36 70.3799 1405.36 70.3799C1405.36 70.3799 1397.59 61.9399 1395.12 62.1299C1392.66 62.3199 1395.21 65.0699 1396.64 66.1099C1398.06 67.1499 1406.02 75.5899 1406.02 75.5899L1408.48 96.5399L1394.09 80.4299C1394.09 80.4299 1392.75 78.5299 1391.04 78.5299C1389.33 78.5299 1390.38 80.1399 1391.04 81.0899C1391.7 82.0399 1408.86 103.55 1408.86 103.55V141.27L1397.3 130.84L1406.68 142.69L1397.3 138.61L1402.23 144.31C1402.23 144.31 1378.72 145.64 1373.42 145.26L1378.92 138.34L1369.82 145.33H1366.98L1376.27 134.46L1366.41 142.04C1366.41 142.04 1366.41 120.15 1370.2 116.92C1370.2 116.92 1382.14 116.54 1382.33 116.26C1382.52 115.98 1384.79 113.8 1380.15 113.42C1375.51 113.04 1370.67 113.33 1370.67 113.33L1373.23 101.38C1373.23 101.38 1378.73 97.4899 1387.35 95.8799C1387.35 95.8799 1390.76 96.1399 1390.48 93.3499C1390.2 90.5699 1382.71 93.7899 1382.71 93.7899L1374.65 97.1099C1374.65 97.1099 1378.16 81.0899 1377.11 79.6699C1376.06 78.2499 1373.98 78.8199 1373.6 80.6199C1373.22 82.4199 1370.47 92.9399 1370.47 92.9399C1370.47 92.9399 1366.87 77.5899 1364.88 72.9399C1362.89 68.2999 1360.71 70.1899 1361.56 73.5099C1362.41 76.8299 1368.01 90.6699 1367.82 98.1499L1363.46 108.67C1363.46 108.67 1362.61 90.5699 1359.95 88.0999C1357.3 85.6399 1357.39 89.2399 1357.96 91.4199C1358.53 93.5999 1361.66 108.67 1361.28 119.1C1360.9 129.53 1357.64 136.92 1357.64 136.92L1354.36 142.04L1348.67 133.32L1351.99 141.85L1345.36 139.67L1350.29 143.65L1331.52 142.51L1330.1 140.52L1336.55 133.98L1330.1 137.3L1324.6 125.83L1327.82 138.91L1325.83 139.19C1325.83 139.19 1321.75 137.39 1321 135.02C1320.24 132.65 1310.86 98.6199 1310.86 98.6199C1310.86 98.6199 1320.34 85.9199 1320.72 84.2099C1321.1 82.4999 1321.1 81.0799 1319.58 81.3699C1318.06 81.6499 1309.44 94.4499 1309.44 94.4499C1309.44 94.4499 1304.13 78.3399 1303.75 74.9299C1303.75 74.9299 1320.05 62.4199 1320.62 60.8999C1321.19 59.3799 1320.71 56.8199 1315.31 60.6199C1309.91 64.4099 1302.23 71.8999 1302.23 71.8999C1302.23 71.8999 1298.82 54.5599 1297.3 54.2699C1295.78 53.9899 1294.74 53.5099 1293.98 55.4999C1293.22 57.4899 1297.39 83.9299 1297.39 83.9299L1285.45 77.6699C1285.45 77.6699 1283.93 76.7199 1282.89 77.6699C1281.85 78.6199 1283.46 79.7599 1284.31 80.5099C1285.16 81.2599 1299.47 89.2299 1299.47 89.2299C1299.47 89.2299 1302.5 96.0499 1304.78 103.64C1307.05 111.22 1311.98 135.87 1311.7 138.71L1299 129.23L1310.47 140.6L1310.09 142.21L1301.09 133.58L1306.68 142.39C1306.68 142.39 1281.94 144.76 1276.16 143.81L1283.84 133.86L1273.41 143.62V135.85L1270.09 144.38C1270.09 144.38 1268.1 129.4 1269.62 124.1L1288.77 108.46C1288.77 108.46 1290.57 105.33 1287.35 106.09L1270.38 119.17L1272.09 98.2199L1284.7 90.3499C1284.7 90.3499 1287.45 88.4499 1283.37 88.0799L1271.62 94.9999C1271.62 94.9999 1272.47 82.1099 1271.34 80.9699C1270.2 79.8299 1267.36 78.5999 1267.07 82.0099V86.2799C1267.07 86.2799 1257.88 73.1099 1256.64 70.1699C1256.64 70.1699 1252.37 67.6099 1255.22 73.8699C1258.06 80.1299 1266.59 91.3099 1266.59 91.3099L1265.55 104.96C1265.55 104.96 1258.73 96.6199 1257.87 95.8599C1257.02 95.0999 1254.08 94.6299 1255.88 97.8499C1257.68 101.07 1264.51 109.41 1264.51 109.41C1264.51 109.41 1261.76 136.9 1259.3 142.68L1257.21 135.48L1256.45 142.68L1252.09 134.81L1254.18 144C1254.18 144 1214.28 143.81 1207.45 143.95C1200.63 144.09 1176.03 144.09 1164.94 143.67C1153.85 143.25 1103.52 142.25 1091.01 142.11C1078.5 141.97 1022.63 143.11 1016.23 143.11C1009.83 143.11 960.5 144.25 953.67 144.25C946.85 144.25 920.69 145.31 920.69 145.31C920.69 145.31 909.6 147.52 902.92 146.09C902.92 146.09 892.97 143.63 880.6 146.57C880.6 146.57 876.19 148.08 866.1 144.96C856.01 141.83 832.97 144.11 828.99 143.11C825.01 142.11 798.57 133.02 790.18 128.75C790.18 128.75 785.63 126.76 778.52 127.33L782.07 120.51L777.09 125.77L775.67 116.67L774.39 124.92L768.28 115.96L772.12 124.77C772.12 124.77 763.16 123.06 757.33 123.21C751.5 123.35 747.43 121.05 745.01 118.07C745.01 118.07 741.55 113.54 737.14 114.82C737.14 114.82 734.94 109.74 730.17 111.05C730.17 111.05 730.38 105.86 723.74 103.94C723.74 103.94 721.22 100.69 724.15 97.9899C724.15 97.9899 729.55 101.54 734.58 98.6999C739.6 95.8599 739.41 92.4399 739.41 92.4399C739.41 92.4399 743.53 92.9599 746.09 91.6799C746.09 91.6799 747.75 95.9499 753.1 95.0399C753.1 95.0399 754.85 98.6899 759.83 97.4099C759.83 97.4099 762.06 102.1 768.69 99.9199C768.69 99.9199 777.031 100.68 775.75 93.0999C775.75 93.0999 782.201 91.2999 780.44 85.3799C780.44 85.3799 793.8 85.1399 786.93 74.6699C786.93 74.6699 790.91 68.9399 785.98 65.4799C785.98 65.4799 788.16 61.2099 784.89 58.6599C784.89 58.6599 790.79 54.8199 788.52 50.5599C788.52 50.5599 794.21 44.5899 786.74 40.8899C786.74 40.8899 788.8 35.5599 782.69 33.9899C782.69 33.9899 781.13 28.7999 777.5 29.7999C777.5 29.7999 777.14 21.6299 769.54 26.8899C769.54 26.8899 767.12 23.6199 763.5 23.9799C763.5 23.9799 762.43 18.5799 756.25 18.9999C756.25 18.9999 756.041 10.3299 747.51 10.8299C747.51 10.8299 746.3 7.48988 744.38 6.77988C744.38 6.77988 742.32 -1.25012 736.21 2.65988C736.21 2.65988 735.641 3.01988 735.07 3.86988C735.07 3.86988 730.951 2.58988 729.67 3.72988C729.67 3.72988 726.26 0.66988 722.13 2.30988C722.13 2.30988 715.16 -2.88012 710.19 3.22988C710.19 3.22988 703.58 -1.75012 698.89 3.58988C698.89 3.58988 689.29 -1.88012 683.54 5.85988C683.54 5.85988 675.93 -0.40012 670.6 6.35988C670.6 6.35988 663.28 -1.18012 655.53 6.92988C655.53 6.92988 647.36 4.22988 645.58 11.9799C645.58 11.9799 638.61 9.98988 636.98 17.8799C636.98 17.8799 633.35 17.0299 633.14 21.5799C633.14 21.5799 625.89 20.7999 625.04 29.1899C625.04 29.1899 612.24 26.3499 615.37 37.9299C615.37 37.9299 606.63 38.6399 607.83 48.5899C607.83 48.5899 602.71 48.9499 604.2 55.4099C604.2 55.4099 598.02 56.4799 602.78 63.2999C602.78 63.2999 598.73 69.1999 608.54 73.6099C608.54 73.6099 604.13 81.8599 611.17 85.4099C611.17 85.4099 613.37 96.5699 626.03 90.2399C626.03 90.2399 634.56 103.18 647.85 88.8199C647.85 88.8199 651.48 96.1399 660.72 87.8199C660.72 87.8199 663.49 92.7999 671.52 91.7999C671.52 91.7999 686.02 96.9899 675.22 105.87C675.22 105.87 672.021 109.5 668.82 110.06C665.62 110.63 659.93 108.92 658.23 115.39C658.23 115.39 652.831 116.03 647.57 122.43C647.57 122.43 648 116.74 648.78 113.33L645.23 119.51L641.18 112.4L643.6 122.99L634.15 115.38L641.61 125.33C641.61 125.33 621.14 128.03 608.77 134C596.4 139.97 579.34 144.38 579.34 144.38V136.13L577.07 142.95L573.66 138.4L574.8 144.8L565.42 139.11L571.82 145.79C571.82 145.79 549.5 146.05 537.56 146.92C525.62 147.78 525.62 142.66 507.42 145.51C492.92 145.51 465.62 142.38 452.54 144.09C439.46 145.8 419.27 145.51 413.59 145.23C407.901 144.95 370.65 142.96 339.95 145.8C310.09 143.81 310.66 144.95 277.96 145.52C245.26 146.09 237.58 144.38 224.22 145.8C210.86 147.22 192.37 147.03 192.37 147.03L193.93 139.26L188.67 147.04C188.67 147.04 187.25 135.99 192.51 131.3L204.74 125.61L192.37 127.46L193.08 113.67L206.73 113.1L194.651 110.54C194.651 110.54 194.65 105.28 191.95 105.28C189.25 105.28 187.68 119.5 187.68 119.5C187.68 119.5 183.7 112.53 181.99 112.25C180.281 111.97 178.291 111.82 181.281 116.09C184.271 120.36 185.83 123.77 185.83 123.77C185.83 123.77 181.561 142.34 181.281 146.38L175.59 140.98L178.291 147.05L176.44 146.38L170.47 143.11L173.31 147.05H152.271L156.82 139.99L149.85 147.05H148.141C148.141 147.05 149.85 138.28 150.84 131.88C155.11 122.5 164.061 101.03 165.771 98.4699C165.771 98.4699 183.971 97.4699 184.541 96.9099C185.11 96.3399 187.1 93.9199 182.69 93.7799C178.28 93.6399 168.76 95.9099 167.62 94.9199C166.48 93.9299 179.141 72.0299 178.99 69.4699C178.85 66.9099 177 65.3499 174.3 69.1899C171.6 73.0299 168.47 82.1299 167.48 82.8399C166.48 83.5499 164.781 83.4099 164.781 83.4099C164.781 83.4099 163.071 68.3399 162.651 67.6299C162.23 66.9199 160.09 65.9199 160.09 69.1899C160.09 72.4599 162.08 87.3899 162.08 87.3899C162.08 87.3899 155.99 99.0199 155.13 105.7C155.13 105.7 148.43 91.2299 144.59 89.2299C144.59 89.2299 140.891 88.3799 144.59 92.9299C148.29 97.4799 152.691 107.29 152.271 109.14C151.85 110.99 148.86 120.51 141.75 129.04C134.641 137.57 130.23 143.11 130.23 143.11L126.25 139.27L127.1 144.96L116.72 139.42L122.69 145.11C122.69 145.11 90.1305 143.69 83.7405 144.54L88.4304 137.57L81.0405 144.54C81.0405 144.54 77.7705 132.46 75.6405 124.21L70.9504 87.6699C70.9504 87.6699 89.8605 78.2899 89.7205 76.1499C89.5804 74.0199 87.3005 73.8299 85.0305 75.1999C82.7605 76.5699 69.3905 84.8199 69.3905 84.8199C69.3905 84.8199 67.5404 67.4799 66.9705 62.9299C66.9705 62.9299 80.1904 61.6499 83.1804 57.0999C83.1804 57.0999 83.3204 54.8299 79.2004 56.5299C75.0804 58.2299 68.1105 59.7999 66.9705 59.2299C65.8304 58.6599 65.9705 47.4299 63.8405 45.0099C61.7104 42.5899 59.1504 44.1599 61.4204 54.2499C63.6904 64.3399 63.4105 70.1699 63.4105 70.1699C63.4105 70.1699 54.7405 58.2299 52.4604 57.0899C50.1904 55.9499 48.4805 56.8099 52.4604 61.9199C56.4404 67.0399 61.4205 71.5899 63.4105 77.1299C65.4005 82.6699 66.6804 100.73 66.6804 100.73C66.6804 100.73 50.4705 79.0699 46.3505 75.1899C46.3505 75.1899 38.8104 70.5899 46.9204 81.2599C55.0204 91.9199 57.4705 91.9399 66.4005 106.85C66.4005 106.85 69.6704 138.27 69.6704 142.96L65.1205 140.83L68.1105 145.24L58.0205 141.4L62.4304 145.67L48.6405 145.81L49.4905 141.12L46.0804 145.53C46.0804 145.53 33.8505 135.86 29.5905 123.64C29.5905 123.64 41.8206 122.5 42.5305 121.93C43.2405 121.36 42.9604 119.37 41.2505 119.23C39.5405 119.09 28.4504 120.51 28.4504 120.51C28.4504 120.51 21.4805 111.13 21.6305 107.71C21.6305 107.71 32.2905 91.9299 32.1505 89.6499C32.0105 87.3799 29.7305 87.0899 27.8805 90.7899C26.0305 94.4899 19.2104 105.01 19.2104 105.01C19.2104 105.01 12.6704 90.3699 10.8204 89.0899C8.97046 87.8099 5.42041 87.6699 8.97046 94.4899C12.5205 101.31 19.7805 115.82 19.7805 115.82L6.42041 115.68C6.42041 115.68 1.02039 116.68 6.42041 119.09H21.3505C21.3505 119.09 27.8905 130.75 31.7305 138.28L32.4404 146.24L23.4805 142.97L29.7405 147.05L-1.81958 145.1V150.42H1442.23V136.45Z" fill="white"/>
<path d="M903.99 130.4C903.99 130.4 917.99 141.7 926.38 140.92C926.38 140.92 926.74 130.47 914.86 125.57C902.99 120.67 901.28 122.66 892.97 123.72C884.65 124.79 880.67 124.86 879.61 123.44C879.61 123.44 879.33 120.6 880.39 116.76C881.46 112.92 880.67 111.57 880.67 111.57C880.67 111.57 877.07 114.41 875.86 117.18C875.86 117.18 874.99 114.05 875.42 111.57C875.42 111.57 873.21 112.78 871.57 120.1C871.57 120.1 871.07 123.3 869.37 124.58C867.66 125.86 868.16 126.78 864.61 128.7C861.06 130.62 863.33 132.47 866.67 132.11C870.01 131.75 872.5 130.83 875.56 130.4C875.56 130.4 876.41 131.89 876.2 132.53C875.99 133.17 875.77 135.59 871.44 136.58C867.1 137.58 865.61 137.65 865.75 138.71C865.89 139.77 868.95 140.34 871.58 139.28C874.21 138.21 877.69 135.65 878.62 133.95C878.62 133.95 879.97 137.72 878.34 140.21C876.7 142.7 874.5 143.34 874.5 143.34C874.5 143.34 872.51 143.98 874.43 144.97C875.29 145.42 876.72 145.22 878.15 144.47C880.84 143.06 882.45 140.19 882.49 137.15L882.53 134.31C882.53 134.31 897.17 133.67 898.6 134.1C898.6 134.1 900.38 139.5 906.35 140.64C906.35 140.64 907.35 140.64 907.56 143.13L905.71 143.49C905.71 143.49 905.07 144.49 905.71 144.63C906.35 144.77 908.98 144.13 908.98 144.13L908.41 138.44L910.05 139.15C910.05 139.15 913.46 142.7 914.88 142.7C916.3 142.7 913.32 139.15 912.32 138.86C911.32 138.58 905.88 134.45 905.35 132.75C904.82 131.05 903.99 130.4 903.99 130.4Z" fill="white"/>
</svg>
