<svg width="1445" height="152" viewBox="0 0 1445 152" fill="none" xmlns="http://www.w3.org/2000/svg">
<path d="M1444.23 0H0V150.44H1444.23V0Z" fill="#2E112D"/>
<path d="M0 137.45L14.41 140.29L7.96 131.38L18.48 140.29L12.79 132.8L19.71 138.11L25.78 103.61C25.78 103.61 13.7 93.0899 9.57 90.2499C9.57 90.2499 6.3 87.6899 9.14 86.1299C11.98 84.5699 26.77 99.2099 26.77 99.2099C26.77 99.2099 26.2 80.2999 25.63 78.4499L11.21 65.0799C11.21 65.0799 10.19 63.7399 11.27 62.9699C11.9 62.5299 12.77 62.6299 13.35 63.1299L27.55 75.2399C27.55 75.2399 31.55 64.3399 31.74 62.6899C31.93 61.0499 22.07 49.7699 20.37 47.2999C18.67 44.8299 20.46 43.5999 21.89 44.1699L33.07 57.7199L35.53 44.4499C35.53 44.4499 36.1 42.3599 37.8 42.3599C39.5 42.3599 40.26 43.2099 39.6 47.5699C38.94 51.9299 36.87 71.3799 36.87 71.3799C36.87 71.3799 44.64 62.9399 47.11 63.1299C49.57 63.3199 47.02 66.0699 45.59 67.1099C44.17 68.1499 36.21 76.5899 36.21 76.5899L33.75 97.5399L48.14 81.4299C48.14 81.4299 49.48 79.5299 51.19 79.5299C52.9 79.5299 51.85 81.1399 51.19 82.0899C50.53 83.0399 33.37 104.55 33.37 104.55V142.27L44.93 131.84L35.55 143.69L44.93 139.61L40 145.31C40 145.31 63.51 146.64 68.81 146.26L63.31 139.34L72.41 146.33H75.25L65.96 135.46L75.82 143.04C75.82 143.04 75.82 121.15 72.03 117.92C72.03 117.92 60.09 117.54 59.9 117.26C59.71 116.98 57.44 114.8 62.08 114.42C66.72 114.04 71.56 114.33 71.56 114.33L69 102.38C69 102.38 63.5 98.4899 54.88 96.8799C54.88 96.8799 51.47 97.1399 51.75 94.3499C52.03 91.5699 59.52 94.7899 59.52 94.7899L67.58 98.1099C67.58 98.1099 64.07 82.0899 65.12 80.6699C66.17 79.2499 68.25 79.8199 68.63 81.6199C69.01 83.4199 71.76 93.9399 71.76 93.9399C71.76 93.9399 75.36 78.5899 77.35 73.9399C79.34 69.2999 81.52 71.1899 80.67 74.5099C79.82 77.8299 74.22 91.6699 74.41 99.1499L78.77 109.67C78.77 109.67 79.62 91.5699 82.28 89.0999C84.93 86.6399 84.84 90.2399 84.27 92.4199C83.7 94.5999 80.57 109.67 80.95 120.1C81.33 130.53 84.59 137.92 84.59 137.92L87.87 143.04L93.56 134.32L90.24 142.85L96.87 140.67L91.94 144.65L110.71 143.51L112.13 141.52L105.68 134.98L112.13 138.3L117.63 126.83L114.41 139.91L116.4 140.19C116.4 140.19 120.48 138.39 121.23 136.02C121.99 133.65 131.37 99.6199 131.37 99.6199C131.37 99.6199 121.89 86.9199 121.51 85.2099C121.13 83.4999 121.13 82.0799 122.65 82.3699C124.17 82.6499 132.79 95.4499 132.79 95.4499C132.79 95.4499 138.1 79.3399 138.48 75.9299C138.48 75.9299 122.18 63.4199 121.61 61.8999C121.04 60.3799 121.52 57.8199 126.92 61.6199C132.32 65.4099 140 72.8999 140 72.8999C140 72.8999 143.41 55.5599 144.93 55.2699C146.45 54.9899 147.49 54.5099 148.25 56.4999C149.01 58.4899 144.84 84.9299 144.84 84.9299L156.78 78.6699C156.78 78.6699 158.3 77.7199 159.34 78.6699C160.38 79.6199 158.77 80.7599 157.92 81.5099C157.07 82.2599 142.76 90.2299 142.76 90.2299C142.76 90.2299 139.73 97.0499 137.45 104.64C135.18 112.22 130.25 136.87 130.53 139.71L143.23 130.23L131.76 141.6L132.14 143.21L141.14 134.58L135.55 143.39C135.55 143.39 160.29 145.76 166.07 144.81L158.39 134.86L168.82 144.62V136.85L172.14 145.38C172.14 145.38 174.13 130.4 172.61 125.1L153.46 109.46C153.46 109.46 151.66 106.33 154.88 107.09L171.85 120.17L170.14 99.2199L157.53 91.3499C157.53 91.3499 154.78 89.4499 158.86 89.0799L170.61 95.9999C170.61 95.9999 169.76 83.1099 170.89 81.9699C172.03 80.8299 174.87 79.5999 175.16 83.0099V87.2799C175.16 87.2799 184.35 74.1099 185.59 71.1699C185.59 71.1699 189.86 68.6099 187.01 74.8699C184.17 81.1299 175.64 92.3099 175.64 92.3099L176.68 105.96C176.68 105.96 183.5 97.6199 184.36 96.8599C185.21 96.0999 188.15 95.6299 186.35 98.8499C184.55 102.07 177.72 110.41 177.72 110.41C177.72 110.41 180.47 137.9 182.93 143.68L185.02 136.48L185.78 143.68L190.14 135.81L188.05 145C188.05 145 227.95 144.81 234.78 144.95C241.6 145.09 266.2 145.09 277.29 144.67C288.38 144.25 338.71 143.25 351.22 143.11C363.73 142.97 419.6 144.11 426 144.11C432.4 144.11 481.73 145.25 488.56 145.25C495.38 145.25 521.54 146.31 521.54 146.31C521.54 146.31 532.63 148.52 539.31 147.09C539.31 147.09 549.26 144.63 561.63 147.57C561.63 147.57 566.04 149.08 576.13 145.96C586.22 142.83 609.26 145.11 613.24 144.11C617.22 143.11 643.66 134.02 652.05 129.75C652.05 129.75 656.6 127.76 663.71 128.33L660.16 121.51L665.14 126.77L666.56 117.67L667.84 125.92L673.95 116.96L670.11 125.77C670.11 125.77 679.07 124.06 684.9 124.21C690.73 124.35 694.8 122.05 697.22 119.07C697.22 119.07 700.68 114.54 705.09 115.82C705.09 115.82 707.29 110.74 712.06 112.05C712.06 112.05 711.85 106.86 718.49 104.94C718.49 104.94 721.01 101.69 718.08 98.9899C718.08 98.9899 712.68 102.54 707.65 99.6999C702.63 96.8599 702.82 93.4399 702.82 93.4399C702.82 93.4399 698.7 93.9599 696.14 92.6799C696.14 92.6799 694.48 96.9499 689.13 96.0399C689.13 96.0399 687.38 99.6899 682.4 98.4099C682.4 98.4099 680.17 103.1 673.54 100.92C673.54 100.92 665.2 101.68 666.48 94.0999C666.48 94.0999 660.03 92.2999 661.79 86.3799C661.79 86.3799 648.43 86.1399 655.3 75.6699C655.3 75.6699 651.32 69.9399 656.25 66.4799C656.25 66.4799 654.07 62.2099 657.34 59.6599C657.34 59.6599 651.44 55.8199 653.71 51.5599C653.71 51.5599 648.02 45.5899 655.49 41.8899C655.49 41.8899 653.43 36.5599 659.54 34.9899C659.54 34.9899 661.1 29.7999 664.73 30.7999C664.73 30.7999 665.09 22.6299 672.69 27.8899C672.69 27.8899 675.11 24.6199 678.73 24.9799C678.73 24.9799 679.8 19.5799 685.98 19.9999C685.98 19.9999 686.19 11.3299 694.72 11.8299C694.72 11.8299 695.93 8.48988 697.85 7.77988C697.85 7.77988 699.91 -0.25012 706.02 3.65988C706.02 3.65988 706.59 4.01988 707.16 4.86988C707.16 4.86988 711.28 3.58988 712.56 4.72988C712.56 4.72988 715.97 1.66988 720.1 3.30988C720.1 3.30988 727.07 -1.88012 732.04 4.22988C732.04 4.22988 738.65 -0.75012 743.34 4.58988C743.34 4.58988 752.94 -0.880119 758.69 6.85988C758.69 6.85988 766.3 0.59988 771.63 7.35988C771.63 7.35988 778.95 -0.18012 786.7 7.92988C786.7 7.92988 794.87 5.22988 796.65 12.9799C796.65 12.9799 803.62 10.9899 805.25 18.8799C805.25 18.8799 808.88 18.0299 809.09 22.5799C809.09 22.5799 816.34 21.7999 817.19 30.1899C817.19 30.1899 829.99 27.3499 826.86 38.9299C826.86 38.9299 835.6 39.6399 834.4 49.5899C834.4 49.5899 839.52 49.9499 838.03 56.4099C838.03 56.4099 844.21 57.4799 839.45 64.2999C839.45 64.2999 843.5 70.1999 833.69 74.6099C833.69 74.6099 838.1 82.8599 831.06 86.4099C831.06 86.4099 828.86 97.5699 816.2 91.2399C816.2 91.2399 807.67 104.18 794.38 89.8199C794.38 89.8199 790.75 97.1399 781.51 88.8199C781.51 88.8199 778.74 93.7999 770.71 92.7999C770.71 92.7999 756.21 97.9899 767.01 106.87C767.01 106.87 770.21 110.5 773.41 111.06C776.61 111.63 782.3 109.92 784 116.39C784 116.39 789.4 117.03 794.66 123.43C794.66 123.43 794.23 117.74 793.45 114.33L797 120.51L801.05 113.4L798.63 123.99L808.08 116.38L800.62 126.33C800.62 126.33 821.09 129.03 833.46 135C845.83 140.97 862.89 145.38 862.89 145.38V137.13L865.16 143.95L868.57 139.4L867.43 145.8L876.81 140.11L870.41 146.79C870.41 146.79 892.73 147.05 904.67 147.92C916.61 148.78 916.61 143.66 934.81 146.51C949.31 146.51 976.61 143.38 989.69 145.09C1002.77 146.8 1022.96 146.51 1028.64 146.23C1034.33 145.95 1071.58 143.96 1102.28 146.8C1132.14 144.81 1131.57 145.95 1164.27 146.52C1196.97 147.09 1204.65 145.38 1218.01 146.8C1231.37 148.22 1249.86 148.03 1249.86 148.03L1248.3 140.26L1253.56 148.04C1253.56 148.04 1254.98 136.99 1249.72 132.3L1237.49 126.61L1249.86 128.46L1249.15 114.67L1235.5 114.1L1247.58 111.54C1247.58 111.54 1247.58 106.28 1250.28 106.28C1252.98 106.28 1254.55 120.5 1254.55 120.5C1254.55 120.5 1258.53 113.53 1260.24 113.25C1261.95 112.97 1263.94 112.82 1260.95 117.09C1257.96 121.36 1256.4 124.77 1256.4 124.77C1256.4 124.77 1260.67 143.34 1260.95 147.38L1266.64 141.98L1263.94 148.05L1265.79 147.38L1271.76 144.11L1268.92 148.05H1289.96L1285.41 140.99L1292.38 148.05H1294.09C1294.09 148.05 1292.38 139.28 1291.39 132.88C1287.12 123.5 1278.17 102.03 1276.46 99.4699C1276.46 99.4699 1258.26 98.4699 1257.69 97.9099C1257.12 97.3399 1255.13 94.9199 1259.54 94.7799C1263.95 94.6399 1273.47 96.9099 1274.61 95.9199C1275.75 94.9299 1263.09 73.0299 1263.24 70.4699C1263.38 67.9099 1265.23 66.3499 1267.93 70.1899C1270.63 74.0299 1273.76 83.1299 1274.75 83.8399C1275.75 84.5499 1277.45 84.4099 1277.45 84.4099C1277.45 84.4099 1279.16 69.3399 1279.58 68.6299C1280 67.9199 1282.14 66.9199 1282.14 70.1899C1282.14 73.4599 1280.15 88.3899 1280.15 88.3899C1280.15 88.3899 1286.24 100.02 1287.1 106.7C1287.1 106.7 1293.8 92.2299 1297.64 90.2299C1297.64 90.2299 1301.34 89.3799 1297.64 93.9299C1293.94 98.4799 1289.54 108.29 1289.96 110.14C1290.38 111.99 1293.37 121.51 1300.48 130.04C1307.59 138.57 1312 144.11 1312 144.11L1315.98 140.27L1315.13 145.96L1325.51 140.42L1319.54 146.11C1319.54 146.11 1352.1 144.69 1358.49 145.54L1353.8 138.57L1361.19 145.54C1361.19 145.54 1364.46 133.46 1366.59 125.21L1371.28 88.6699C1371.28 88.6699 1352.37 79.2899 1352.51 77.1499C1352.65 75.0199 1354.93 74.8299 1357.2 76.1999C1359.47 77.5699 1372.84 85.8199 1372.84 85.8199C1372.84 85.8199 1374.69 68.4799 1375.26 63.9299C1375.26 63.9299 1362.04 62.6499 1359.05 58.0999C1359.05 58.0999 1358.91 55.8299 1363.03 57.5299C1367.15 59.2299 1374.12 60.7999 1375.26 60.2299C1376.4 59.6599 1376.26 48.4299 1378.39 46.0099C1380.52 43.5899 1383.08 45.1599 1380.81 55.2499C1378.54 65.3399 1378.82 71.1699 1378.82 71.1699C1378.82 71.1699 1387.49 59.2299 1389.77 58.0899C1392.04 56.9499 1393.75 57.8099 1389.77 62.9199C1385.79 68.0399 1380.81 72.5899 1378.82 78.1299C1376.83 83.6699 1375.55 101.73 1375.55 101.73C1375.55 101.73 1391.76 80.0699 1395.88 76.1899C1395.88 76.1899 1403.42 71.5899 1395.31 82.2599C1387.21 92.9199 1384.76 92.9399 1375.83 107.85C1375.83 107.85 1372.56 139.27 1372.56 143.96L1377.11 141.83L1374.12 146.24L1384.21 142.4L1379.8 146.67L1393.59 146.81L1392.74 142.12L1396.15 146.53C1396.15 146.53 1408.38 136.86 1412.64 124.64C1412.64 124.64 1400.41 123.5 1399.7 122.93C1398.99 122.36 1399.27 120.37 1400.98 120.23C1402.69 120.09 1413.78 121.51 1413.78 121.51C1413.78 121.51 1420.75 112.13 1420.6 108.71C1420.6 108.71 1409.94 92.9299 1410.08 90.6499C1410.22 88.3799 1412.5 88.0899 1414.35 91.7899C1416.2 95.4899 1423.02 106.01 1423.02 106.01C1423.02 106.01 1429.56 91.3699 1431.41 90.0899C1433.26 88.8099 1436.81 88.6699 1433.26 95.4899C1429.71 102.31 1422.45 116.82 1422.45 116.82L1435.81 116.68C1435.81 116.68 1441.21 117.68 1435.81 120.09H1420.88C1420.88 120.09 1414.34 131.75 1410.5 139.28L1409.79 147.24L1418.75 143.97L1412.49 148.05L1444.05 146.1V151.42H0V137.45Z" fill="#FFB800"/>
<path d="M538.241 130.4C538.241 130.4 524.241 141.7 515.851 140.92C515.851 140.92 515.491 130.47 527.371 125.57C539.241 120.67 540.951 122.66 549.261 123.72C557.581 124.79 561.561 124.86 562.621 123.44C562.621 123.44 562.901 120.6 561.841 116.76C560.771 112.92 561.561 111.57 561.561 111.57C561.561 111.57 565.161 114.41 566.371 117.18C566.371 117.18 567.241 114.05 566.811 111.57C566.811 111.57 569.021 112.78 570.661 120.1C570.661 120.1 571.161 123.3 572.861 124.58C574.571 125.86 574.071 126.78 577.621 128.7C581.171 130.62 578.901 132.47 575.561 132.11C572.221 131.75 569.731 130.83 566.671 130.4C566.671 130.4 565.821 131.89 566.031 132.53C566.241 133.17 566.461 135.59 570.791 136.58C575.131 137.58 576.621 137.65 576.481 138.71C576.341 139.77 573.281 140.34 570.651 139.28C568.021 138.21 564.541 135.65 563.611 133.95C563.611 133.95 562.261 137.72 563.891 140.21C565.531 142.7 567.731 143.34 567.731 143.34C567.731 143.34 569.721 143.98 567.801 144.97C566.941 145.42 565.511 145.22 564.081 144.47C561.391 143.06 559.781 140.19 559.741 137.15L559.701 134.31C559.701 134.31 545.061 133.67 543.631 134.1C543.631 134.1 541.851 139.5 535.881 140.64C535.881 140.64 534.881 140.64 534.671 143.13L536.521 143.49C536.521 143.49 537.161 144.49 536.521 144.63C535.881 144.77 533.251 144.13 533.251 144.13L533.821 138.44L532.181 139.15C532.181 139.15 528.771 142.7 527.351 142.7C525.931 142.7 528.911 139.15 529.911 138.86C530.911 138.58 536.351 134.45 536.881 132.75C537.411 131.05 538.241 130.4 538.241 130.4Z" fill="white"/>
</svg>
