<svg width="30" height="23" viewBox="0 0 30 23" fill="none" xmlns="http://www.w3.org/2000/svg">
<path d="M25.3961 2.79042C23.4837 1.94714 21.4337 1.32385 19.29 0.969426C19.271 0.965842 19.2512 0.968152 19.2335 0.976034C19.2158 0.983917 19.2011 0.996983 19.1913 1.01342C18.9288 1.46439 18.6363 2.05224 18.4313 2.51666C16.1578 2.18452 13.8463 2.18452 11.5728 2.51666C11.3444 2.00197 11.087 1.50011 10.8015 1.01342C10.7919 0.996781 10.7772 0.983419 10.7596 0.975121C10.7419 0.966823 10.7221 0.963984 10.7028 0.966981C8.56035 1.3214 6.51041 1.9447 4.59672 2.7892C4.58025 2.79595 4.5663 2.80746 4.55672 2.82219C0.666832 8.41349 -0.399388 13.8667 0.124347 19.2514C0.125805 19.2646 0.129991 19.2774 0.136653 19.289C0.143315 19.3005 0.152311 19.3106 0.163096 19.3187C2.43352 20.9349 4.96588 22.166 7.65413 22.9606C7.67287 22.9663 7.69291 22.9663 7.71164 22.9606C7.73038 22.9549 7.74692 22.9439 7.75913 22.9289C8.3376 22.1725 8.85022 21.37 9.29158 20.5298C9.29771 20.5183 9.30124 20.5057 9.30194 20.4927C9.30263 20.4798 9.30048 20.4669 9.29562 20.4548C9.29076 20.4428 9.28331 20.4319 9.27377 20.4229C9.26423 20.4139 9.25283 20.407 9.24033 20.4027C8.43286 20.1054 7.65049 19.7466 6.9004 19.3297C6.88692 19.3221 6.87557 19.3115 6.86735 19.2986C6.85913 19.2857 6.85431 19.2711 6.85332 19.2559C6.85233 19.2408 6.8552 19.2256 6.86167 19.2118C6.86814 19.198 6.87801 19.186 6.8904 19.1769C7.0479 19.0632 7.20539 18.9447 7.35539 18.8261C7.36889 18.8155 7.38515 18.8087 7.40237 18.8065C7.41958 18.8044 7.43707 18.8069 7.45289 18.8139C12.3615 20.9698 17.6776 20.9698 22.5287 18.8139C22.5446 18.8065 22.5622 18.8036 22.5797 18.8056C22.5971 18.8075 22.6137 18.8142 22.6274 18.8249C22.7774 18.9447 22.9337 19.0632 23.0924 19.1769C23.1049 19.1858 23.115 19.1977 23.1217 19.2114C23.1283 19.225 23.1314 19.2401 23.1307 19.2553C23.13 19.2704 23.1254 19.2851 23.1174 19.2981C23.1094 19.3111 23.0983 19.3219 23.0849 19.3297C22.3375 19.7501 21.56 20.1057 20.7437 20.4015C20.7312 20.4059 20.7198 20.4129 20.7103 20.4221C20.7007 20.4312 20.6933 20.4422 20.6884 20.4543C20.6836 20.4664 20.6814 20.4795 20.6821 20.4925C20.6828 20.5055 20.6864 20.5182 20.6925 20.5298C21.1425 21.3694 21.6575 22.1687 22.2237 22.9277C22.2355 22.9432 22.2519 22.9549 22.2707 22.961C22.2895 22.9671 22.3097 22.9674 22.3287 22.9619C25.0216 22.1695 27.5581 20.9377 29.831 19.3187C29.8421 19.3111 29.8514 19.3013 29.8583 19.2899C29.8652 19.2785 29.8695 19.2658 29.871 19.2527C30.496 13.0271 28.8235 7.61788 25.4349 2.82464C25.4266 2.80906 25.4128 2.79692 25.3961 2.79042ZM10.0253 15.9724C8.54785 15.9724 7.32914 14.666 7.32914 13.0637C7.32914 11.4603 8.52411 10.155 10.0253 10.155C11.5378 10.155 12.7452 11.4713 12.7215 13.0637C12.7215 14.6672 11.5265 15.9724 10.0253 15.9724ZM19.9938 15.9724C18.5151 15.9724 17.2976 14.666 17.2976 13.0637C17.2976 11.4603 18.4913 10.155 19.9938 10.155C21.5062 10.155 22.7137 11.4713 22.6899 13.0637C22.6899 14.6672 21.5075 15.9724 19.9938 15.9724Z" fill="#F8F8F8"/>
</svg>
