<svg width="30" height="23" viewBox="0 0 30 23" fill="none" xmlns="http://www.w3.org/2000/svg">
<path d="M25.3961 1.89731C23.4837 1.04377 21.4337 0.412902 19.29 0.0541712C19.271 0.0505442 19.2512 0.0528816 19.2335 0.0608601C19.2158 0.0688386 19.2011 0.0820636 19.1913 0.0987034C18.9288 0.555158 18.6363 1.15016 18.4313 1.62022C16.1578 1.28405 13.8463 1.28405 11.5728 1.62022C11.3444 1.09927 11.087 0.591308 10.8015 0.0987034C10.7919 0.0818587 10.7772 0.0683346 10.7596 0.0599358C10.7419 0.051537 10.7221 0.0486629 10.7028 0.0516971C8.56035 0.410428 6.51041 1.0413 4.59672 1.89607C4.58025 1.9029 4.5663 1.91456 4.55672 1.92947C0.666832 7.58876 -0.399388 13.1083 0.124347 18.5585C0.125805 18.5719 0.129991 18.5848 0.136653 18.5965C0.143315 18.6082 0.152311 18.6184 0.163096 18.6265C2.43352 20.2624 4.96588 21.5085 7.65413 22.3128C7.67287 22.3185 7.69291 22.3185 7.71164 22.3128C7.73038 22.307 7.74692 22.2958 7.75913 22.2806C8.3376 21.515 8.85022 20.7028 9.29158 19.8524C9.29771 19.8408 9.30124 19.828 9.30194 19.8149C9.30263 19.8018 9.30048 19.7887 9.29562 19.7765C9.29076 19.7643 9.28331 19.7533 9.27377 19.7442C9.26423 19.7351 9.25283 19.7281 9.24033 19.7238C8.43286 19.4228 7.65049 19.0597 6.9004 18.6377C6.88692 18.6301 6.87557 18.6193 6.86735 18.6062C6.85913 18.5932 6.85431 18.5784 6.85332 18.563C6.85233 18.5477 6.8552 18.5324 6.86167 18.5184C6.86814 18.5044 6.87801 18.4923 6.8904 18.483C7.0479 18.368 7.20539 18.248 7.35539 18.128C7.36889 18.1172 7.38515 18.1104 7.40237 18.1082C7.41958 18.106 7.43707 18.1086 7.45289 18.1157C12.3615 20.2977 17.6776 20.2977 22.5287 18.1157C22.5446 18.1082 22.5622 18.1052 22.5797 18.1072C22.5971 18.1092 22.6137 18.116 22.6274 18.1268C22.7774 18.248 22.9337 18.368 23.0924 18.483C23.1049 18.4921 23.115 18.5041 23.1217 18.5179C23.1283 18.5318 23.1314 18.547 23.1307 18.5624C23.13 18.5777 23.1254 18.5926 23.1174 18.6057C23.1094 18.6189 23.0983 18.6298 23.0849 18.6377C22.3375 19.0632 21.56 19.4232 20.7437 19.7225C20.7312 19.727 20.7198 19.7341 20.7103 19.7433C20.7007 19.7526 20.6933 19.7637 20.6884 19.776C20.6836 19.7883 20.6814 19.8015 20.6821 19.8146C20.6828 19.8278 20.6864 19.8407 20.6925 19.8524C21.1425 20.7022 21.6575 21.5112 22.2237 22.2794C22.2355 22.2952 22.2519 22.307 22.2707 22.3132C22.2895 22.3194 22.3097 22.3197 22.3287 22.314C25.0216 21.512 27.5581 20.2653 29.831 18.6265C29.8421 18.6189 29.8514 18.6089 29.8583 18.5974C29.8652 18.5859 29.8695 18.5731 29.871 18.5597C30.496 12.2584 28.8235 6.78347 25.4349 1.93194C25.4266 1.91618 25.4128 1.90389 25.3961 1.89731ZM10.0253 15.2396C8.54785 15.2396 7.32914 13.9173 7.32914 12.2956C7.32914 10.6726 8.52411 9.35149 10.0253 9.35149C11.5378 9.35149 12.7452 10.6837 12.7215 12.2956C12.7215 13.9185 11.5265 15.2396 10.0253 15.2396ZM19.9938 15.2396C18.5151 15.2396 17.2976 13.9173 17.2976 12.2956C17.2976 10.6726 18.4913 9.35149 19.9938 9.35149C21.5062 9.35149 22.7137 10.6837 22.6899 12.2956C22.6899 13.9185 21.5075 15.2396 19.9938 15.2396Z" fill="#FFB800"/>
</svg>
