<svg width="29" height="29" viewBox="0 0 29 29" fill="none" xmlns="http://www.w3.org/2000/svg">
<path d="M20.3711 0H8.66331C3.90519 0 0.0341797 3.87101 0.0341797 8.62913V20.3369C0.0341797 25.095 3.90519 28.966 8.66331 28.966H20.3711C25.1292 28.966 29.0002 25.095 29.0002 20.3369V8.62913C29.0001 3.87101 25.1291 0 20.3711 0ZM26.0862 20.3369C26.0862 23.4932 23.5274 26.052 20.3711 26.052H8.66331C5.50695 26.052 2.94816 23.4932 2.94816 20.3369V8.62913C2.94816 5.47271 5.50695 2.91398 8.66331 2.91398H20.3711C23.5274 2.91398 26.0862 5.47271 26.0862 8.62913V20.3369Z" fill="white"/>
<path d="M14.5173 6.99146C10.3864 6.99146 7.02563 10.3522 7.02563 14.483C7.02563 18.6139 10.3864 21.9747 14.5173 21.9747C18.6482 21.9747 22.0089 18.6139 22.0089 14.483C22.0089 10.3521 18.6482 6.99146 14.5173 6.99146ZM14.5173 19.0608C11.9891 19.0608 9.93961 17.0113 9.93961 14.4831C9.93961 11.9549 11.9891 9.90543 14.5173 9.90543C17.0455 9.90543 19.0949 11.9549 19.0949 14.4831C19.0949 17.0112 17.0454 19.0608 14.5173 19.0608Z" fill="white"/>
<path d="M22.0234 8.84286C23.0149 8.84286 23.8186 8.03915 23.8186 7.04771C23.8186 6.05628 23.0149 5.25256 22.0234 5.25256C21.032 5.25256 20.2283 6.05628 20.2283 7.04771C20.2283 8.03915 21.032 8.84286 22.0234 8.84286Z" fill="white"/>
</svg>
