<svg width="30" height="30" viewBox="0 0 30 30" fill="none" xmlns="http://www.w3.org/2000/svg">
<path d="M20.372 0H8.66429C3.90616 0 0.0351562 3.91808 0.0351562 8.73406V20.5842C0.0351562 25.4002 3.90616 29.3182 8.66429 29.3182H20.372C25.1302 29.3182 29.0012 25.4002 29.0012 20.5842V8.73406C29.0011 3.91808 25.1301 0 20.372 0ZM26.0872 20.5842C26.0872 23.7789 23.5284 26.3688 20.372 26.3688H8.66429C5.50792 26.3688 2.94914 23.7789 2.94914 20.5842V8.73406C2.94914 5.53926 5.50792 2.94941 8.66429 2.94941H20.372C23.5284 2.94941 26.0872 5.53926 26.0872 8.73406V20.5842Z" fill="#FFB800"/>
<path d="M14.4916 7C10.3607 7 7 10.4016 7 14.5827C7 18.7638 10.3607 22.1654 14.4916 22.1654C18.6225 22.1654 21.9833 18.7638 21.9833 14.5827C21.9833 10.4016 18.6225 7 14.4916 7ZM14.4916 19.2161C11.9634 19.2161 9.91398 17.1417 9.91398 14.5827C9.91398 12.0238 11.9635 9.94941 14.4916 9.94941C17.0198 9.94941 19.0693 12.0238 19.0693 14.5827C19.0693 17.1416 17.0198 19.2161 14.4916 19.2161Z" fill="#FFB800"/>
<path d="M22.0256 8.95039C23.0171 8.95039 23.8208 8.13691 23.8208 7.13342C23.8208 6.12993 23.0171 5.31644 22.0256 5.31644C21.0342 5.31644 20.2305 6.12993 20.2305 7.13342C20.2305 8.13691 21.0342 8.95039 22.0256 8.95039Z" fill="#FFB800"/>
</svg>
