<svg width="30" height="26" viewBox="0 0 30 26" fill="none" xmlns="http://www.w3.org/2000/svg">
<path d="M29.5229 2.96985C28.8563 3.26957 28.1644 3.50601 27.4544 3.67719C28.2367 2.92335 28.8249 1.98046 29.1568 0.928019C29.2515 0.627566 28.9297 0.367756 28.6621 0.528626C27.6744 1.12271 26.6105 1.56838 25.4998 1.85341C25.4353 1.86995 25.3689 1.87833 25.3021 1.87833C25.0998 1.87833 24.9032 1.80216 24.7485 1.66391C23.5668 0.607837 22.0469 0.0262146 20.469 0.0262146C19.7862 0.0262146 19.0968 0.134129 18.42 0.34699C16.3228 1.00656 14.7047 2.7607 14.197 4.92491C14.0065 5.73668 13.9549 6.54919 14.0436 7.33981C14.0538 7.43067 14.0114 7.49408 13.9853 7.52382C13.9394 7.57596 13.8744 7.60585 13.8069 7.60585C13.7994 7.60585 13.7916 7.60548 13.7839 7.60474C9.19333 7.17227 5.05372 4.92966 2.12763 1.29011C1.97842 1.10446 1.69229 1.12723 1.57336 1.33409C1.00035 2.3309 0.69754 3.47101 0.69754 4.63114C0.69754 6.40908 1.40198 8.0846 2.62559 9.30607C2.11103 9.18236 1.613 8.98752 1.15037 8.72697C0.926551 8.60088 0.651167 8.76294 0.648022 9.02253C0.615986 11.6638 2.14102 14.014 4.42557 15.0723C4.37956 15.0734 4.33356 15.0739 4.28748 15.0739C3.92534 15.0739 3.55868 15.0385 3.19779 14.9685C2.94574 14.9197 2.73399 15.1622 2.81225 15.41C3.55378 17.7575 5.54707 19.4878 7.93242 19.8807C5.95272 21.2282 3.64733 21.939 1.24787 21.939L0.499834 21.9386C0.26936 21.9386 0.0744341 22.0909 0.0157002 22.3173C-0.042156 22.5402 0.0644135 22.7754 0.260949 22.8914C2.96476 24.4869 6.04884 25.3302 9.18112 25.3302C11.9229 25.3302 14.4876 24.7785 16.804 23.6904C18.9276 22.693 20.8041 21.2671 22.3815 19.4524C23.851 17.762 25.0001 15.8106 25.7967 13.6524C26.5562 11.5953 26.9576 9.40019 26.9576 7.30451V7.20468C26.9575 6.86818 27.1076 6.55156 27.3695 6.33603C28.3631 5.51796 29.2284 4.55497 29.9412 3.47382C30.1294 3.18835 29.8326 2.83057 29.5229 2.96985Z" fill="#FFB800"/>
</svg>
