<svg width="30" height="26" viewBox="0 0 30 26" fill="none" xmlns="http://www.w3.org/2000/svg">
<path d="M29.5229 3.8741C28.8563 4.17021 28.1644 4.40381 27.4544 4.57293C28.2367 3.82815 28.8249 2.89659 29.1568 1.85679C29.2515 1.55995 28.9297 1.30326 28.6621 1.4622C27.6744 2.04914 26.6105 2.48946 25.4998 2.77106C25.4353 2.7874 25.3689 2.79568 25.3021 2.79568C25.0998 2.79568 24.9032 2.72043 24.7485 2.58384C23.5668 1.54046 22.0469 0.96582 20.469 0.96582C19.7862 0.96582 19.0968 1.07244 18.42 1.28274C16.3228 1.93439 14.7047 3.66746 14.197 5.80567C14.0065 6.60768 13.9549 7.41043 14.0436 8.19155C14.0538 8.28132 14.0114 8.34397 13.9853 8.37335C13.9394 8.42487 13.8744 8.4544 13.8069 8.4544C13.7994 8.4544 13.7916 8.45403 13.7839 8.4533C9.19333 8.02602 5.05372 5.81036 2.12763 2.21453C1.97842 2.03112 1.69229 2.05361 1.57336 2.25798C1.00035 3.24282 0.69754 4.36923 0.69754 5.51542C0.69754 7.27201 1.40198 8.9274 2.62559 10.1342C2.11103 10.012 1.613 9.81947 1.15037 9.56205C0.926551 9.43748 0.651167 9.59758 0.648022 9.85405C0.615986 12.4636 2.14102 14.7856 4.42557 15.8312C4.37956 15.8323 4.33356 15.8328 4.28748 15.8328C3.92534 15.8328 3.55868 15.7977 3.19779 15.7286C2.94574 15.6804 2.73399 15.92 2.81225 16.1648C3.55378 18.4841 5.54707 20.1936 7.93242 20.5817C5.95272 21.9131 3.64733 22.6154 1.24787 22.6154L0.499834 22.615C0.26936 22.615 0.0744341 22.7655 0.0157002 22.9891C-0.042156 23.2094 0.0644135 23.4417 0.260949 23.5563C2.96476 25.1327 6.04884 25.9658 9.18112 25.9658C11.9229 25.9658 14.4876 25.4207 16.804 24.3457C18.9276 23.3603 20.8041 21.9515 22.3815 20.1586C23.851 18.4885 25.0001 16.5605 25.7967 14.4283C26.5562 12.3959 26.9576 10.2272 26.9576 8.15667V8.05804C26.9575 7.72559 27.1076 7.41277 27.3695 7.19983C28.3631 6.39159 29.2284 5.44016 29.9412 4.37201C30.1294 4.08997 29.8326 3.73648 29.5229 3.8741Z" fill="white"/>
</svg>
